<?xml version="1.0" standalone="no"?>
<!DOCTYPE svg PUBLIC "-//W3C//DTD SVG 1.1//EN" "http://www.w3.org/Graphics/SVG/1.1/DTD/svg11.dtd">
<svg xmlns:inkscape="http://www.inkscape.org/namespaces/inkscape" xmlns:sodipodi="http://sodipodi.sourceforge.net/DTD/sodipodi-0.dtd" xmlns:xlink="http://www.w3.org/1999/xlink" xmlns="http://www.w3.org/2000/svg" xmlns:svg="http://www.w3.org/2000/svg" width="102.55756378173828" height="102.55705261230469" viewBox="0 0 102.55756 102.55705" version="1.1" id="svg1" xml:space="preserve" inkscape:version="1.3 (0e150ed6c4, 2023-07-21)" sodipodi:docname="gastro-logo.svg"><sodipodi:namedview id="namedview1" pagecolor="#ffffff" bordercolor="#000000" borderopacity="0.25" inkscape:showpageshadow="2" inkscape:pageopacity="0.0" inkscape:pagecheckerboard="0" inkscape:deskcolor="#d1d1d1" inkscape:document-units="mm" inkscape:zoom="0.12929276" inkscape:cx="-576.2117" inkscape:cy="1009.3373" inkscape:window-width="1920" inkscape:window-height="1017" inkscape:window-x="-8" inkscape:window-y="-8" inkscape:window-maximized="1" inkscape:current-layer="g59" inkscape:export-bgcolor="#f2f2f200"/><defs id="defs1"><linearGradient id="linearGradient29" inkscape:collect="always"><stop style="stop-color:#8a5aa3;stop-opacity:1;" offset="0" id="stop28"/><stop style="stop-color:#0a2f49;stop-opacity:1;" offset="1" id="stop29"/></linearGradient><linearGradient inkscape:collect="always" xlink:href="#linearGradient29" id="linearGradient16" x1="31.534506" y1="64.692101" x2="157.03241" y2="182.88486" gradientUnits="userSpaceOnUse"/></defs><g inkscape:groupmode="layer" id="layer3" inkscape:label="design 1" transform="translate(-32.557702,-64.573317)"><path id="path7" style="fill:url(#linearGradient16);fill-opacity:1;stroke-width:0.132292" inkscape:label="stomach shape 1" d="m 41.782463,64.573319 c -5.110488,0 -9.22476,4.113756 -9.22476,9.224244 v 84.108047 c 0,5.11048 4.114272,9.22476 9.22476,9.22476 h 84.108047 c 5.11048,0 9.22476,-4.11428 9.22476,-9.22476 V 73.797563 c 0,-5.110488 -4.11428,-9.224244 -9.22476,-9.224244 z m 29.05404,6.420797 h 11.739852 c -1.806706,2.164983 -3.014205,6.181081 -2.801379,9.820073 0.243471,4.163002 2.458126,7.739516 2.957959,10.925948 1.023193,6.522856 4.859902,12.022523 -5.499923,17.138493 -10.359828,5.11596 -7.034204,-5.11597 -17.521928,2.81378 -10.487726,7.92974 -0.639754,15.6037 -0.639754,15.6037 0,0 2.758465,1.7778 5.839953,4.20129 H 41.624849 a 2.6458333,2.6458333 0 0 1 -2.645833,-2.64583 V 102.8516 a 2.6458333,2.6458333 0 0 1 2.645833,-2.64583 H 68.19067 V 73.63995 a 2.6458333,2.6458333 0 0 1 2.645833,-2.645834 z m 21.122742,0 h 4.877221 A 2.6458333,2.6458333 0 0 1 99.4823,73.63995 v 17.529679 c -0.568621,-0.357466 -1.129391,-0.712633 -1.785421,-1.09244 -7.290249,-4.22067 -8.824784,0.383956 -8.824784,0.383956 -1.738374,-3.476708 -3.361873,-7.916876 -2.298051,-11.410673 1.061034,-3.48464 3.586107,-6.351112 5.385201,-8.056356 z m 15.450215,29.211654 h 18.63866 a 2.6458333,2.6458333 0 0 1 2.64583,2.64583 v 25.99997 a 2.6458333,2.6458333 0 0 1 -2.64583,2.64583 H 99.4823 v 26.56582 a 2.6458333,2.6458333 0 0 1 -2.645834,2.64583 H 70.836503 a 2.6458333,2.6458333 0 0 1 -2.645833,-2.64583 v -2.08824 c 5.563668,-4.85496 15.311058,-14.29433 12.24008,-18.5751 -4.22067,-5.88335 -9.848497,-10.61563 -13.941268,-12.02252 -4.09277,-1.40689 -7.546044,-8.44133 2.302185,-3.06958 15.695813,8.56134 23.405813,6.39522 31.079756,2.43034 7.673947,-3.96486 9.080847,-18.54563 7.929747,-23.15001 -0.12104,-0.48415 -0.2534,-0.9366 -0.39171,-1.38234 z m -2.8422,3.71502 c 0.11246,-0.0365 0.28271,0.10553 0.44804,0.49971 0.598,1.42581 1.20762,6.87134 0.31832,8.92349 -1.26474,2.91853 -1.59943,4.5262 -6.810435,9.41854 -5.927372,5.56491 -21.932362,1.84687 -17.410823,1.72031 2.023768,-0.0567 5.510413,0.55442 10.230383,-0.12816 4.71997,-0.68257 13.024245,-5.74339 13.342335,-16.02899 0.0352,-1.13734 -0.33531,-3.23709 -0.20877,-4.31188 0.0224,-0.0491 0.0535,-0.0809 0.091,-0.093 z m -36.37659,30.33665 c 2.818737,2.59188 5.205367,5.4536 5.205367,7.74681 0,4.08976 -3.359489,6.8081 -5.205367,7.99951 z" inkscape:export-filename="path7.svg" inkscape:export-xdpi="96" inkscape:export-ydpi="96"/></g></svg>